<?xml version="1.0" encoding="UTF-8" standalone="no"?><!DOCTYPE svg PUBLIC "-//W3C//DTD SVG 1.1//EN" "http://www.w3.org/Graphics/SVG/1.1/DTD/svg11.dtd"><!-- Generated by graphviz version 2.40.1 (20161225.0304)
 --><!-- Title: G Pages: 1 --><svg xmlns="http://www.w3.org/2000/svg" xmlns:xlink="http://www.w3.org/1999/xlink" width="224pt" height="507pt" viewBox="0.00 0.00 224.00 507.20">
<g id="graph0" class="graph" transform="scale(1 1) rotate(0) translate(4 503.2)">
<title>G</title>
<polygon fill="#ffffff" stroke="transparent" points="-4,4 -4,-503.2 220,-503.2 220,4 -4,4"/>
<!-- 2 -->
<g id="node1" class="node">
<title>2</title>
<ellipse fill="none" stroke="#000000" cx="153" cy="-481.2" rx="27" ry="18"/>
<text text-anchor="middle" x="153" y="-477" font-family="Times,serif" font-size="14.00" fill="#000000">2</text>
</g>
<!-- 1 -->
<g id="node2" class="node">
<title>1</title>
<ellipse fill="none" stroke="#000000" cx="189" cy="-392.4" rx="27" ry="18"/>
<text text-anchor="middle" x="189" y="-388.2" font-family="Times,serif" font-size="14.00" fill="#000000">1</text>
</g>
<!-- 2&#45;&gt;1 -->
<g id="edge1" class="edge">
<title>2-&gt;1</title>
<path fill="none" stroke="#000000" d="M159.421,-463.503C163.228,-453.204 168.228,-440.004 173,-428.4 174.2486,-425.3638 175.5915,-422.2005 176.9494,-419.0646"/>
<polygon fill="#000000" stroke="#000000" points="180.1611,-420.4556 180.9889,-409.8932 173.755,-417.634 180.1611,-420.4556"/>
<text text-anchor="middle" x="176.5" y="-432.6" font-family="Times,serif" font-size="14.00" fill="#000000">1</text>
</g>
<!-- 3 -->
<g id="node3" class="node">
<title>3</title>
<ellipse fill="none" stroke="#000000" cx="74" cy="-392.4" rx="27" ry="18"/>
<text text-anchor="middle" x="74" y="-388.2" font-family="Times,serif" font-size="14.00" fill="#000000">3</text>
</g>
<!-- 2&#45;&gt;3 -->
<g id="edge3" class="edge">
<title>2-&gt;3</title>
<path fill="none" stroke="#000000" d="M137.0781,-466.561C130.3766,-460.1847 122.615,-452.51 116,-445.2 107.8166,-436.1568 99.3419,-425.735 92.1666,-416.5521"/>
<polygon fill="#000000" stroke="#000000" points="94.8672,-414.3227 85.9881,-408.5423 89.3246,-418.5981 94.8672,-414.3227"/>
<text text-anchor="middle" x="119.5" y="-432.6" font-family="Times,serif" font-size="14.00" fill="#000000">5</text>
</g>
<!-- 4 -->
<g id="node4" class="node">
<title>4</title>
<ellipse fill="none" stroke="#000000" cx="137" cy="-303.6" rx="27" ry="18"/>
<text text-anchor="middle" x="137" y="-299.4" font-family="Times,serif" font-size="14.00" fill="#000000">4</text>
</g>
<!-- 2&#45;&gt;4 -->
<g id="edge5" class="edge">
<title>2-&gt;4</title>
<path fill="none" stroke="#000000" d="M151.1442,-463.1649C149.6899,-448.861 147.6443,-428.3582 146,-410.4 143.5615,-383.7691 141.0244,-353.3791 139.268,-331.8441"/>
<polygon fill="#000000" stroke="#000000" points="142.7462,-331.4323 138.4488,-321.7482 135.7691,-331.9985 142.7462,-331.4323"/>
<text text-anchor="middle" x="149.5" y="-388.2" font-family="Times,serif" font-size="14.00" fill="#000000">1</text>
</g>
<!-- 1&#45;&gt;2 -->
<g id="edge2" class="edge">
<title>1-&gt;2</title>
<path fill="none" stroke="#000000" d="M187.0517,-410.5425C185.4855,-420.99 182.7355,-434.19 178,-445.2 176.3088,-449.1319 174.1539,-453.074 171.8206,-456.832"/>
<polygon fill="#000000" stroke="#000000" points="168.8825,-454.9288 166.1868,-465.175 174.6837,-458.8462 168.8825,-454.9288"/>
<text text-anchor="middle" x="186.5" y="-432.6" font-family="Times,serif" font-size="14.00" fill="#000000">5</text>
</g>
<!-- 1&#45;&gt;4 -->
<g id="edge4" class="edge">
<title>1-&gt;4</title>
<path fill="none" stroke="#000000" d="M178.9739,-375.2785C171.2996,-362.1732 160.5939,-343.8911 151.9154,-329.0709"/>
<polygon fill="#000000" stroke="#000000" points="154.8925,-327.2285 146.819,-320.3678 148.852,-330.7658 154.8925,-327.2285"/>
<text text-anchor="middle" x="170.5" y="-343.8" font-family="Times,serif" font-size="14.00" fill="#000000">4</text>
</g>
<!-- 3&#45;&gt;4 -->
<g id="edge6" class="edge">
<title>3-&gt;4</title>
<path fill="none" stroke="#000000" d="M85.5552,-376.1127C94.9981,-362.8027 108.5032,-343.7669 119.307,-328.5388"/>
<polygon fill="#000000" stroke="#000000" points="122.373,-330.2659 125.3047,-320.0848 116.6638,-326.2155 122.373,-330.2659"/>
<text text-anchor="middle" x="114.5" y="-343.8" font-family="Times,serif" font-size="14.00" fill="#000000">6</text>
</g>
<!-- 5 -->
<g id="node5" class="node">
<title>5</title>
<ellipse fill="none" stroke="#000000" cx="86" cy="-249.6" rx="27" ry="18"/>
<text text-anchor="middle" x="86" y="-245.4" font-family="Times,serif" font-size="14.00" fill="#000000">5</text>
</g>
<!-- 3&#45;&gt;5 -->
<g id="edge7" class="edge">
<title>3-&gt;5</title>
<path fill="none" stroke="#000000" d="M75.5198,-374.3143C77.5554,-350.0908 81.1894,-306.8461 83.5976,-278.1888"/>
<polygon fill="#000000" stroke="#000000" points="87.1049,-278.2479 84.4546,-267.9899 80.1294,-277.6617 87.1049,-278.2479"/>
<text text-anchor="middle" x="82.5" y="-343.8" font-family="Times,serif" font-size="14.00" fill="#000000">1</text>
</g>
<!-- 6 -->
<g id="node6" class="node">
<title>6</title>
<ellipse fill="none" stroke="#000000" cx="27" cy="-249.6" rx="27" ry="18"/>
<text text-anchor="middle" x="27" y="-245.4" font-family="Times,serif" font-size="14.00" fill="#000000">6</text>
</g>
<!-- 3&#45;&gt;6 -->
<g id="edge8" class="edge">
<title>3-&gt;6</title>
<path fill="none" stroke="#000000" d="M68.1424,-374.603C60.1211,-350.2317 45.6371,-306.2249 36.1707,-277.4633"/>
<polygon fill="#000000" stroke="#000000" points="39.3823,-276.0258 32.9314,-267.6213 32.7332,-278.2143 39.3823,-276.0258"/>
<text text-anchor="middle" x="66.5" y="-343.8" font-family="Times,serif" font-size="14.00" fill="#000000">4</text>
</g>
<!-- 7 -->
<g id="node7" class="node">
<title>7</title>
<ellipse fill="none" stroke="#000000" cx="137" cy="-195.6" rx="27" ry="18"/>
<text text-anchor="middle" x="137" y="-191.4" font-family="Times,serif" font-size="14.00" fill="#000000">7</text>
</g>
<!-- 4&#45;&gt;7 -->
<g id="edge9" class="edge">
<title>4-&gt;7</title>
<path fill="none" stroke="#000000" d="M137,-285.2793C137,-268.421 137,-243.1651 137,-223.747"/>
<polygon fill="#000000" stroke="#000000" points="140.5001,-223.6501 137,-213.6502 133.5001,-223.6502 140.5001,-223.6501"/>
<text text-anchor="middle" x="140.5" y="-245.4" font-family="Times,serif" font-size="14.00" fill="#000000">1</text>
</g>
<!-- 8 -->
<g id="node8" class="node">
<title>8</title>
<ellipse fill="none" stroke="#000000" cx="85" cy="-106.8" rx="27" ry="18"/>
<text text-anchor="middle" x="85" y="-102.6" font-family="Times,serif" font-size="14.00" fill="#000000">8</text>
</g>
<!-- 5&#45;&gt;8 -->
<g id="edge10" class="edge">
<title>5-&gt;8</title>
<path fill="none" stroke="#000000" d="M85.8733,-231.5143C85.7037,-207.2908 85.4009,-164.0461 85.2002,-135.3888"/>
<polygon fill="#000000" stroke="#000000" points="88.6988,-135.1651 85.1288,-125.1899 81.699,-135.2142 88.6988,-135.1651"/>
<text text-anchor="middle" x="89.5" y="-191.4" font-family="Times,serif" font-size="14.00" fill="#000000">2</text>
</g>
<!-- 9 -->
<g id="node9" class="node">
<title>9</title>
<ellipse fill="none" stroke="#000000" cx="45" cy="-18" rx="27" ry="18"/>
<text text-anchor="middle" x="45" y="-13.8" font-family="Times,serif" font-size="14.00" fill="#000000">9</text>
</g>
<!-- 6&#45;&gt;9 -->
<g id="edge11" class="edge">
<title>6-&gt;9</title>
<path fill="none" stroke="#000000" d="M28.4124,-231.4267C31.5407,-191.1767 39.0716,-94.2785 42.8137,-46.1309"/>
<polygon fill="#000000" stroke="#000000" points="46.3087,-46.33 43.5941,-36.0888 39.3297,-45.7875 46.3087,-46.33"/>
<text text-anchor="middle" x="39.5" y="-147" font-family="Times,serif" font-size="14.00" fill="#000000">1</text>
</g>
<!-- 7&#45;&gt;8 -->
<g id="edge12" class="edge">
<title>7-&gt;8</title>
<path fill="none" stroke="#000000" d="M126.9739,-178.4785C119.2996,-165.3732 108.5939,-147.0911 99.9154,-132.2709"/>
<polygon fill="#000000" stroke="#000000" points="102.8925,-130.4285 94.819,-123.5678 96.852,-133.9658 102.8925,-130.4285"/>
<text text-anchor="middle" x="118.5" y="-147" font-family="Times,serif" font-size="14.00" fill="#000000">4</text>
</g>
<!-- 8&#45;&gt;9 -->
<g id="edge13" class="edge">
<title>8-&gt;9</title>
<path fill="none" stroke="#000000" d="M77.0973,-89.256C71.3996,-76.6071 63.6037,-59.3002 57.1219,-44.9105"/>
<polygon fill="#000000" stroke="#000000" points="60.1846,-43.1878 52.8863,-35.5076 53.8022,-46.0628 60.1846,-43.1878"/>
<text text-anchor="middle" x="72.5" y="-58.2" font-family="Times,serif" font-size="14.00" fill="#000000">4</text>
</g>
</g>
</svg>