<?xml version="1.0" encoding="UTF-8" standalone="no"?><!DOCTYPE svg PUBLIC "-//W3C//DTD SVG 1.1//EN" "http://www.w3.org/Graphics/SVG/1.1/DTD/svg11.dtd"><!-- Generated by graphviz version 2.40.1 (20161225.0304)
 --><!-- Title: G Pages: 1 --><svg xmlns="http://www.w3.org/2000/svg" xmlns:xlink="http://www.w3.org/1999/xlink" width="249pt" height="507pt" viewBox="0.00 0.00 249.00 507.20">
<g id="graph0" class="graph" transform="scale(1 1) rotate(0) translate(4 503.2)">
<title>G</title>
<polygon fill="#ffffff" stroke="transparent" points="-4,4 -4,-503.2 245,-503.2 245,4 -4,4"/>
<!-- 2 -->
<g id="node1" class="node">
<title>2</title>
<ellipse fill="none" stroke="#000000" cx="76" cy="-481.2" rx="27" ry="18"/>
<text text-anchor="middle" x="76" y="-477" font-family="Times,serif" font-size="14.00" fill="#000000">2</text>
</g>
<!-- 1 -->
<g id="node2" class="node">
<title>1</title>
<ellipse fill="none" stroke="#000000" cx="27" cy="-392.4" rx="27" ry="18"/>
<text text-anchor="middle" x="27" y="-388.2" font-family="Times,serif" font-size="14.00" fill="#000000">1</text>
</g>
<!-- 2&#45;&gt;1 -->
<g id="edge1" class="edge">
<title>2-&gt;1</title>
<path fill="none" stroke="#000000" d="M56.6467,-468.2122C49.0402,-462.1148 40.9578,-454.2021 36,-445.2 31.8996,-437.7547 29.58,-428.8947 28.2922,-420.5796"/>
<polygon fill="#000000" stroke="#000000" points="31.7527,-420.0318 27.1564,-410.4859 24.7966,-420.8145 31.7527,-420.0318"/>
<text text-anchor="middle" x="39.5" y="-432.6" font-family="Times,serif" font-size="14.00" fill="#000000">1</text>
</g>
<!-- 3 -->
<g id="node3" class="node">
<title>3</title>
<ellipse fill="none" stroke="#000000" cx="147" cy="-392.4" rx="27" ry="18"/>
<text text-anchor="middle" x="147" y="-388.2" font-family="Times,serif" font-size="14.00" fill="#000000">3</text>
</g>
<!-- 2&#45;&gt;3 -->
<g id="edge3" class="edge">
<title>2-&gt;3</title>
<path fill="none" stroke="#000000" d="M89.0225,-464.9127C99.8991,-451.3093 115.5578,-431.7249 127.8608,-416.3374"/>
<polygon fill="#000000" stroke="#000000" points="130.7878,-418.2814 134.2989,-408.2853 125.3205,-413.91 130.7878,-418.2814"/>
<text text-anchor="middle" x="120.5" y="-432.6" font-family="Times,serif" font-size="14.00" fill="#000000">5</text>
</g>
<!-- 4 -->
<g id="node4" class="node">
<title>4</title>
<ellipse fill="none" stroke="#000000" cx="81" cy="-303.6" rx="27" ry="18"/>
<text text-anchor="middle" x="81" y="-299.4" font-family="Times,serif" font-size="14.00" fill="#000000">4</text>
</g>
<!-- 2&#45;&gt;4 -->
<g id="edge5" class="edge">
<title>2-&gt;4</title>
<path fill="none" stroke="#000000" d="M76.5069,-463.1934C77.3792,-432.212 79.1699,-368.606 80.2079,-331.7346"/>
<polygon fill="#000000" stroke="#000000" points="83.7088,-331.7488 80.4917,-321.6543 76.7116,-331.5518 83.7088,-331.7488"/>
<text text-anchor="middle" x="81.5" y="-388.2" font-family="Times,serif" font-size="14.00" fill="#000000">1</text>
</g>
<!-- 1&#45;&gt;2 -->
<g id="edge2" class="edge">
<title>1-&gt;2</title>
<path fill="none" stroke="#000000" d="M36.4187,-409.469C43.5288,-422.3543 53.4125,-440.2659 61.5244,-454.9667"/>
<polygon fill="#000000" stroke="#000000" points="58.6565,-457.0139 66.5523,-464.0785 64.7854,-453.632 58.6565,-457.0139"/>
<text text-anchor="middle" x="58.5" y="-432.6" font-family="Times,serif" font-size="14.00" fill="#000000">5</text>
</g>
<!-- 1&#45;&gt;4 -->
<g id="edge4" class="edge">
<title>1-&gt;4</title>
<path fill="none" stroke="#000000" d="M37.157,-375.6974C45.1014,-362.6333 56.285,-344.2425 65.3684,-329.3053"/>
<polygon fill="#000000" stroke="#000000" points="68.4996,-330.8924 70.705,-320.5296 62.5186,-327.2553 68.4996,-330.8924"/>
<text text-anchor="middle" x="61.5" y="-343.8" font-family="Times,serif" font-size="14.00" fill="#000000">4</text>
</g>
<!-- 3&#45;&gt;4 -->
<g id="edge6" class="edge">
<title>3-&gt;4</title>
<path fill="none" stroke="#000000" d="M134.8946,-376.1127C124.8468,-362.5938 110.4086,-343.168 99.0048,-327.8247"/>
<polygon fill="#000000" stroke="#000000" points="101.803,-325.7222 93.0287,-319.784 96.1849,-329.8979 101.803,-325.7222"/>
<text text-anchor="middle" x="122.5" y="-343.8" font-family="Times,serif" font-size="14.00" fill="#000000">6</text>
</g>
<!-- 5 -->
<g id="node5" class="node">
<title>5</title>
<ellipse fill="none" stroke="#000000" cx="214" cy="-249.6" rx="27" ry="18"/>
<text text-anchor="middle" x="214" y="-245.4" font-family="Times,serif" font-size="14.00" fill="#000000">5</text>
</g>
<!-- 3&#45;&gt;5 -->
<g id="edge7" class="edge">
<title>3-&gt;5</title>
<path fill="none" stroke="#000000" d="M158.1772,-375.7555C167.2736,-361.7289 180.0299,-340.9132 189,-321.6 195.6181,-307.3509 201.475,-290.831 205.8533,-277.2121"/>
<polygon fill="#000000" stroke="#000000" points="209.2622,-278.0373 208.9012,-267.4487 202.5802,-275.9513 209.2622,-278.0373"/>
<text text-anchor="middle" x="182.5" y="-343.8" font-family="Times,serif" font-size="14.00" fill="#000000">1</text>
</g>
<!-- 6 -->
<g id="node6" class="node">
<title>6</title>
<ellipse fill="none" stroke="#000000" cx="153" cy="-303.6" rx="27" ry="18"/>
<text text-anchor="middle" x="153" y="-299.4" font-family="Times,serif" font-size="14.00" fill="#000000">6</text>
</g>
<!-- 3&#45;&gt;6 -->
<g id="edge8" class="edge">
<title>3-&gt;6</title>
<path fill="none" stroke="#000000" d="M148.2432,-374.0006C149.0693,-361.775 150.1697,-345.4887 151.1041,-331.6599"/>
<polygon fill="#000000" stroke="#000000" points="154.5967,-331.8852 151.7789,-321.672 147.6126,-331.4133 154.5967,-331.8852"/>
<text text-anchor="middle" x="153.5" y="-343.8" font-family="Times,serif" font-size="14.00" fill="#000000">4</text>
</g>
<!-- 7 -->
<g id="node7" class="node">
<title>7</title>
<ellipse fill="none" stroke="#000000" cx="81" cy="-195.6" rx="27" ry="18"/>
<text text-anchor="middle" x="81" y="-191.4" font-family="Times,serif" font-size="14.00" fill="#000000">7</text>
</g>
<!-- 4&#45;&gt;7 -->
<g id="edge9" class="edge">
<title>4-&gt;7</title>
<path fill="none" stroke="#000000" d="M81,-285.2793C81,-268.421 81,-243.1651 81,-223.747"/>
<polygon fill="#000000" stroke="#000000" points="84.5001,-223.6501 81,-213.6502 77.5001,-223.6502 84.5001,-223.6501"/>
<text text-anchor="middle" x="84.5" y="-245.4" font-family="Times,serif" font-size="14.00" fill="#000000">1</text>
</g>
<!-- 8 -->
<g id="node8" class="node">
<title>8</title>
<ellipse fill="none" stroke="#000000" cx="149" cy="-106.8" rx="27" ry="18"/>
<text text-anchor="middle" x="149" y="-102.6" font-family="Times,serif" font-size="14.00" fill="#000000">8</text>
</g>
<!-- 5&#45;&gt;8 -->
<g id="edge10" class="edge">
<title>5-&gt;8</title>
<path fill="none" stroke="#000000" d="M208.8018,-231.7969C204.253,-217.011 197.1154,-195.5681 189,-177.6 181.9649,-162.0238 172.6382,-145.3462 164.7606,-132.0923"/>
<polygon fill="#000000" stroke="#000000" points="167.7493,-130.2708 159.5844,-123.5192 161.7569,-133.8889 167.7493,-130.2708"/>
<text text-anchor="middle" x="205.5" y="-191.4" font-family="Times,serif" font-size="14.00" fill="#000000">2</text>
</g>
<!-- 9 -->
<g id="node9" class="node">
<title>9</title>
<ellipse fill="none" stroke="#000000" cx="153" cy="-195.6" rx="27" ry="18"/>
<text text-anchor="middle" x="153" y="-191.4" font-family="Times,serif" font-size="14.00" fill="#000000">9</text>
</g>
<!-- 6&#45;&gt;9 -->
<g id="edge11" class="edge">
<title>6-&gt;9</title>
<path fill="none" stroke="#000000" d="M153,-285.2793C153,-268.421 153,-243.1651 153,-223.747"/>
<polygon fill="#000000" stroke="#000000" points="156.5001,-223.6501 153,-213.6502 149.5001,-223.6502 156.5001,-223.6501"/>
<text text-anchor="middle" x="156.5" y="-245.4" font-family="Times,serif" font-size="14.00" fill="#000000">1</text>
</g>
<!-- 7&#45;&gt;8 -->
<g id="edge12" class="edge">
<title>7-&gt;8</title>
<path fill="none" stroke="#000000" d="M93.4722,-179.3127C103.8245,-165.7938 118.7002,-146.368 130.4496,-131.0247"/>
<polygon fill="#000000" stroke="#000000" points="133.3058,-133.0515 136.6068,-122.984 127.7481,-128.7956 133.3058,-133.0515"/>
<text text-anchor="middle" x="124.5" y="-147" font-family="Times,serif" font-size="14.00" fill="#000000">4</text>
</g>
<!-- 0 -->
<g id="node10" class="node">
<title>0</title>
<ellipse fill="none" stroke="#000000" cx="149" cy="-18" rx="27" ry="18"/>
<text text-anchor="middle" x="149" y="-13.8" font-family="Times,serif" font-size="14.00" fill="#000000">0</text>
</g>
<!-- 8&#45;&gt;0 -->
<g id="edge13" class="edge">
<title>8-&gt;0</title>
<path fill="none" stroke="#000000" d="M149,-88.4006C149,-76.2949 149,-60.2076 149,-46.4674"/>
<polygon fill="#000000" stroke="#000000" points="152.5001,-46.072 149,-36.072 145.5001,-46.0721 152.5001,-46.072"/>
<text text-anchor="middle" x="152.5" y="-58.2" font-family="Times,serif" font-size="14.00" fill="#000000">4</text>
</g>
</g>
</svg>