<?xml version="1.0" encoding="UTF-8" standalone="no"?><!DOCTYPE svg PUBLIC "-//W3C//DTD SVG 1.1//EN" "http://www.w3.org/Graphics/SVG/1.1/DTD/svg11.dtd"><!-- Generated by graphviz version 2.40.1 (20161225.0304)
 --><!-- Title: G Pages: 1 --><svg xmlns="http://www.w3.org/2000/svg" xmlns:xlink="http://www.w3.org/1999/xlink" width="256pt" height="507pt" viewBox="0.00 0.00 256.00 507.20">
<g id="graph0" class="graph" transform="scale(1 1) rotate(0) translate(4 503.2)">
<title>G</title>
<polygon fill="#ffffff" stroke="transparent" points="-4,4 -4,-503.2 252,-503.2 252,4 -4,4"/>
<!-- 2 -->
<g id="node1" class="node">
<title>2</title>
<ellipse fill="none" stroke="#000000" cx="76" cy="-481.2" rx="27" ry="18"/>
<text text-anchor="middle" x="76" y="-477" font-family="Times,serif" font-size="14.00" fill="#000000">2</text>
</g>
<!-- 1 -->
<g id="node2" class="node">
<title>1</title>
<ellipse fill="none" stroke="#000000" cx="27" cy="-392.4" rx="27" ry="18"/>
<text text-anchor="middle" x="27" y="-388.2" font-family="Times,serif" font-size="14.00" fill="#000000">1</text>
</g>
<!-- 2&#45;&gt;1 -->
<g id="edge1" class="edge">
<title>2-&gt;1</title>
<path fill="none" stroke="#000000" d="M56.6467,-468.2122C49.0402,-462.1148 40.9578,-454.2021 36,-445.2 31.8996,-437.7547 29.58,-428.8947 28.2922,-420.5796"/>
<polygon fill="#000000" stroke="#000000" points="31.7527,-420.0318 27.1564,-410.4859 24.7966,-420.8145 31.7527,-420.0318"/>
<text text-anchor="middle" x="39.5" y="-432.6" font-family="Times,serif" font-size="14.00" fill="#000000">5</text>
</g>
<!-- 3 -->
<g id="node3" class="node">
<title>3</title>
<ellipse fill="none" stroke="#000000" cx="151" cy="-392.4" rx="27" ry="18"/>
<text text-anchor="middle" x="151" y="-388.2" font-family="Times,serif" font-size="14.00" fill="#000000">3</text>
</g>
<!-- 2&#45;&gt;3 -->
<g id="edge3" class="edge">
<title>2-&gt;3</title>
<path fill="none" stroke="#000000" d="M89.4085,-465.3243C101.0336,-451.5603 118.0152,-431.454 131.2046,-415.8378"/>
<polygon fill="#000000" stroke="#000000" points="133.929,-418.0364 137.7076,-408.1382 128.5812,-413.5196 133.929,-418.0364"/>
<text text-anchor="middle" x="123.5" y="-432.6" font-family="Times,serif" font-size="14.00" fill="#000000">5</text>
</g>
<!-- 4 -->
<g id="node4" class="node">
<title>4</title>
<ellipse fill="none" stroke="#000000" cx="88" cy="-303.6" rx="27" ry="18"/>
<text text-anchor="middle" x="88" y="-299.4" font-family="Times,serif" font-size="14.00" fill="#000000">4</text>
</g>
<!-- 2&#45;&gt;4 -->
<g id="edge5" class="edge">
<title>2-&gt;4</title>
<path fill="none" stroke="#000000" d="M77.2167,-463.1934C79.31,-432.212 83.6077,-368.606 86.099,-331.7346"/>
<polygon fill="#000000" stroke="#000000" points="89.5979,-331.8675 86.7801,-321.6543 82.6138,-331.3955 89.5979,-331.8675"/>
<text text-anchor="middle" x="86.5" y="-388.2" font-family="Times,serif" font-size="14.00" fill="#000000">1</text>
</g>
<!-- 1&#45;&gt;2 -->
<g id="edge2" class="edge">
<title>1-&gt;2</title>
<path fill="none" stroke="#000000" d="M36.4187,-409.469C43.5288,-422.3543 53.4125,-440.2659 61.5244,-454.9667"/>
<polygon fill="#000000" stroke="#000000" points="58.6565,-457.0139 66.5523,-464.0785 64.7854,-453.632 58.6565,-457.0139"/>
<text text-anchor="middle" x="58.5" y="-432.6" font-family="Times,serif" font-size="14.00" fill="#000000">5</text>
</g>
<!-- 1&#45;&gt;4 -->
<g id="edge4" class="edge">
<title>1-&gt;4</title>
<path fill="none" stroke="#000000" d="M38.4736,-375.6974C47.5902,-362.426 60.4829,-343.6577 70.8286,-328.5971"/>
<polygon fill="#000000" stroke="#000000" points="73.8005,-330.4521 76.5778,-320.2277 68.0307,-326.4885 73.8005,-330.4521"/>
<text text-anchor="middle" x="65.5" y="-343.8" font-family="Times,serif" font-size="14.00" fill="#000000">4</text>
</g>
<!-- 3&#45;&gt;4 -->
<g id="edge6" class="edge">
<title>3-&gt;4</title>
<path fill="none" stroke="#000000" d="M139.4448,-376.1127C130.0019,-362.8027 116.4968,-343.7669 105.693,-328.5388"/>
<polygon fill="#000000" stroke="#000000" points="108.3362,-326.2155 99.6953,-320.0848 102.627,-330.2659 108.3362,-326.2155"/>
<text text-anchor="middle" x="132" y="-343.8" font-family="Times,serif" font-size="14.00" fill="#000000">d6</text>
</g>
<!-- 5 -->
<g id="node5" class="node">
<title>5</title>
<ellipse fill="none" stroke="#000000" cx="221" cy="-249.6" rx="27" ry="18"/>
<text text-anchor="middle" x="221" y="-245.4" font-family="Times,serif" font-size="14.00" fill="#000000">5</text>
</g>
<!-- 3&#45;&gt;5 -->
<g id="edge7" class="edge">
<title>3-&gt;5</title>
<path fill="none" stroke="#000000" d="M161.7816,-375.5611C165.6421,-369.522 170.0219,-362.6595 174,-356.4 183.8147,-340.9567 188.0579,-338.0847 196,-321.6 202.8192,-307.446 208.6908,-290.9331 213.0268,-277.2942"/>
<polygon fill="#000000" stroke="#000000" points="216.4412,-278.0982 216.0335,-267.5112 209.75,-276.0417 216.4412,-278.0982"/>
<text text-anchor="middle" x="192" y="-343.8" font-family="Times,serif" font-size="14.00" fill="#000000">d7</text>
</g>
<!-- 6 -->
<g id="node6" class="node">
<title>6</title>
<ellipse fill="none" stroke="#000000" cx="160" cy="-303.6" rx="27" ry="18"/>
<text text-anchor="middle" x="160" y="-299.4" font-family="Times,serif" font-size="14.00" fill="#000000">6</text>
</g>
<!-- 3&#45;&gt;6 -->
<g id="edge8" class="edge">
<title>3-&gt;6</title>
<path fill="none" stroke="#000000" d="M152.8213,-374.43C154.0574,-362.2338 155.7175,-345.8543 157.1299,-331.9187"/>
<polygon fill="#000000" stroke="#000000" points="160.6243,-332.1501 158.1505,-321.8481 153.6599,-331.4441 160.6243,-332.1501"/>
<text text-anchor="middle" x="163" y="-343.8" font-family="Times,serif" font-size="14.00" fill="#000000">d8</text>
</g>
<!-- 7 -->
<g id="node7" class="node">
<title>7</title>
<ellipse fill="none" stroke="#000000" cx="88" cy="-195.6" rx="27" ry="18"/>
<text text-anchor="middle" x="88" y="-191.4" font-family="Times,serif" font-size="14.00" fill="#000000">7</text>
</g>
<!-- 4&#45;&gt;7 -->
<g id="edge9" class="edge">
<title>4-&gt;7</title>
<path fill="none" stroke="#000000" d="M88,-285.2793C88,-268.421 88,-243.1651 88,-223.747"/>
<polygon fill="#000000" stroke="#000000" points="91.5001,-223.6501 88,-213.6502 84.5001,-223.6502 91.5001,-223.6501"/>
<text text-anchor="middle" x="91.5" y="-245.4" font-family="Times,serif" font-size="14.00" fill="#000000">1</text>
</g>
<!-- 8 -->
<g id="node8" class="node">
<title>8</title>
<ellipse fill="none" stroke="#000000" cx="156" cy="-106.8" rx="27" ry="18"/>
<text text-anchor="middle" x="156" y="-102.6" font-family="Times,serif" font-size="14.00" fill="#000000">8</text>
</g>
<!-- 5&#45;&gt;8 -->
<g id="edge10" class="edge">
<title>5-&gt;8</title>
<path fill="none" stroke="#000000" d="M215.8018,-231.7969C211.253,-217.011 204.1154,-195.5681 196,-177.6 188.9649,-162.0238 179.6382,-145.3462 171.7606,-132.0923"/>
<polygon fill="#000000" stroke="#000000" points="174.7493,-130.2708 166.5844,-123.5192 168.7569,-133.8889 174.7493,-130.2708"/>
<text text-anchor="middle" x="212.5" y="-191.4" font-family="Times,serif" font-size="14.00" fill="#000000">2</text>
</g>
<!-- 9 -->
<g id="node9" class="node">
<title>9</title>
<ellipse fill="none" stroke="#000000" cx="160" cy="-195.6" rx="27" ry="18"/>
<text text-anchor="middle" x="160" y="-191.4" font-family="Times,serif" font-size="14.00" fill="#000000">9</text>
</g>
<!-- 6&#45;&gt;9 -->
<g id="edge11" class="edge">
<title>6-&gt;9</title>
<path fill="none" stroke="#000000" d="M160,-285.2793C160,-268.421 160,-243.1651 160,-223.747"/>
<polygon fill="#000000" stroke="#000000" points="163.5001,-223.6501 160,-213.6502 156.5001,-223.6502 163.5001,-223.6501"/>
<text text-anchor="middle" x="163.5" y="-245.4" font-family="Times,serif" font-size="14.00" fill="#000000">1</text>
</g>
<!-- 7&#45;&gt;8 -->
<g id="edge12" class="edge">
<title>7-&gt;8</title>
<path fill="none" stroke="#000000" d="M100.4722,-179.3127C110.8245,-165.7938 125.7002,-146.368 137.4496,-131.0247"/>
<polygon fill="#000000" stroke="#000000" points="140.3058,-133.0515 143.6068,-122.984 134.7481,-128.7956 140.3058,-133.0515"/>
<text text-anchor="middle" x="131.5" y="-147" font-family="Times,serif" font-size="14.00" fill="#000000">4</text>
</g>
<!-- 0 -->
<g id="node10" class="node">
<title>0</title>
<ellipse fill="none" stroke="#000000" cx="156" cy="-18" rx="27" ry="18"/>
<text text-anchor="middle" x="156" y="-13.8" font-family="Times,serif" font-size="14.00" fill="#000000">0</text>
</g>
<!-- 8&#45;&gt;0 -->
<g id="edge13" class="edge">
<title>8-&gt;0</title>
<path fill="none" stroke="#000000" d="M156,-88.4006C156,-76.2949 156,-60.2076 156,-46.4674"/>
<polygon fill="#000000" stroke="#000000" points="159.5001,-46.072 156,-36.072 152.5001,-46.0721 159.5001,-46.072"/>
<text text-anchor="middle" x="159.5" y="-58.2" font-family="Times,serif" font-size="14.00" fill="#000000">4</text>
</g>
</g>
</svg>